<?xml version="1.0" standalone="no"?>
<!DOCTYPE svg PUBLIC "-//W3C//DTD SVG 20010904//EN"
 "http://www.w3.org/TR/2001/REC-SVG-20010904/DTD/svg10.dtd">
<svg version="1.0" xmlns="http://www.w3.org/2000/svg"
 width="256.000000pt" height="256.000000pt" viewBox="0 0 256.000000 256.000000"
 preserveAspectRatio="xMidYMid meet">
<metadata>
Created by potrace 1.14, written by Peter Selinger 2001-2017
</metadata>
<g transform="translate(0.000000,256.000000) scale(0.100000,-0.100000)"
fill="#000000" stroke="none">
<path d="M24 2375 l-24 -24 0 -1071 0 -1071 23 -22 22 -23 1238 1 1239 0 19
24 c10 13 19 34 19 47 0 28 -32 64 -57 64 -10 1 -546 1 -1190 1 -889 0 -1173
3 -1174 12 0 7 -1 468 -1 1025 -1 1116 3 1045 -61 1056 -21 4 -35 -1 -53 -19z"/>
<path d="M1649 1710 c-4 -57 -3 -1260 1 -1261 27 -6 263 -2 267 4 4 7 7 1125
4 1253 -1 20 -6 20 -136 20 -114 0 -135 -3 -136 -16z"/>
<path d="M1195 1521 c-3 -2 -5 -244 -5 -538 0 -419 3 -533 13 -534 48 -4 250
-3 256 1 4 3 7 246 7 540 l1 536 -134 0 c-73 0 -136 -2 -138 -5z"/>
<path d="M2109 1359 c-5 -3 -8 -190 -7 -460 l3 -454 135 0 135 0 0 460 0 459
-128 1 c-71 0 -133 -2 -138 -6z"/>
<path d="M738 1183 c-3 -7 -2 -698 1 -728 1 -6 54 -10 136 -10 l135 -1 0 156
c1 175 1 533 0 568 0 22 -2 22 -134 22 -74 0 -136 -3 -138 -7z"/>
<path d="M285 1010 c-2 -3 -3 -130 -3 -282 0 -200 3 -278 11 -280 7 -2 68 -4
137 -3 l125 0 0 285 0 284 -133 1 c-74 0 -135 -2 -137 -5z"/>
</g>
</svg>
